# xmcd CD database file
#
# Track frame offsets:
#	150
#	15865
#	30643
#	47398
#	65416
#	80923
#	98173
#	114823
#	133574
#	148677
#	163017
#
# Disc length: 2595 seconds
#
# Revision: 0
# Processed by: cddbd v1.5.2PL0 Copyright (c) Steve Scherf et al.
# Submitted via: CDex 1.51
#
DISCID=830a210b
DTITLE=Charla Corn - More Than I Should
DYEAR=2009
DGENRE=Country
TTITLE0=She Ain't Always Been An Angel
TTITLE1=Where Did All The Cowboys Go
TTITLE2=Break My Heart Tonight
TTITLE3=Lie A Little
TTITLE4=Pure Pain
TTITLE5=Track Number Seven
TTITLE6=Don't Tell Me You Love Me
TTITLE7=Life Is Not A Movie
TTITLE8=Shameless
TTITLE9=Almost Home
TTITLE10=Sing To Me
EXTD=YEAR: 2009
EXTT0=
EXTT1=
EXTT2=
EXTT3=
EXTT4=
EXTT5=
EXTT6=
EXTT7=
EXTT8=
EXTT9=
EXTT10=
PLAYORDER=
